<?xml version="1.0" encoding="UTF-8"?>
<!DOCTYPE svg PUBLIC "-//W3C//DTD SVG 1.1//EN" "http://www.w3.org/Graphics/SVG/1.1/DTD/svg11.dtd">
<svg xmlns="http://www.w3.org/2000/svg" version="1.1" width="256px" height="256px" style="shape-rendering:geometricPrecision; text-rendering:geometricPrecision; image-rendering:optimizeQuality; fill-rule:evenodd; clip-rule:evenodd" xmlns:xlink="http://www.w3.org/1999/xlink">
<g><path style="opacity:0.714" fill="#d0b64f" d="M 114.5,8.5 C 169.583,6.17851 211.083,28.5118 239,75.5C 262.806,131.323 252.64,179.823 208.5,221C 164.294,254.215 116.961,259.215 66.5,236C 12.5793,203.624 -7.58738,156.458 6,94.5C 24.916,44.0854 61.0827,15.4187 114.5,8.5 Z"/></g>
<g><path style="opacity:1" fill="#6b0f05" d="M 96.5,14.5 C 89.8181,16.3923 83.4847,19.059 77.5,22.5C 74.5256,23.6508 71.5256,24.8175 68.5,26C 64.4311,29.0632 60.0978,31.7299 55.5,34C 46.254,40.5792 38.4207,48.4126 32,57.5C 25.1949,65.4792 19.3615,74.1459 14.5,83.5C 10.9589,90.9702 8.62559,98.9702 7.5,107.5C 7.5,107.833 7.5,108.167 7.5,108.5C 6.02959,111.886 5.36292,115.553 5.5,119.5C 5.57383,122.287 6.2405,124.787 7.5,127C 6.74756,127.671 6.41423,128.504 6.5,129.5C 5.63762,137.889 6.30428,146.223 8.5,154.5C 8.5,155.5 8.5,156.5 8.5,157.5C 8.16667,157.5 7.83333,157.5 7.5,157.5C -4.06362,97.5252 16.9364,52.6918 70.5,23C 78.7626,18.8568 87.4293,16.0234 96.5,14.5 Z"/></g>
<g><path style="opacity:1" fill="#b10000" d="M 229.5,69.5 C 229.829,71.9908 230.829,74.1575 232.5,76C 230.284,76.3934 228.284,75.8934 226.5,74.5C 225.512,73.205 224.512,71.8717 223.5,70.5C 222.791,69.596 221.791,69.2627 220.5,69.5C 217.167,62.8333 212.167,57.8333 205.5,54.5C 204.5,54.5 203.5,54.5 202.5,54.5C 197.624,49.8927 191.957,46.5594 185.5,44.5C 185.44,43.9569 185.107,43.6236 184.5,43.5C 183.799,47.5409 185.466,50.5409 189.5,52.5C 189.62,56.6147 191.62,59.2814 195.5,60.5C 195.5,61.1667 195.5,61.8333 195.5,62.5C 194.402,63.6009 194.235,64.9343 195,66.5C 196.254,70.004 197.754,73.3374 199.5,76.5C 200.754,79.0934 202.42,81.4268 204.5,83.5C 203.503,86.005 203.503,88.6717 204.5,91.5C 198.134,92.8665 191.634,94.1998 185,95.5C 182.275,94.5205 179.442,93.8538 176.5,93.5C 146.677,93.4233 117.344,93.7566 88.5,94.5C 86.4012,95.2309 84.4012,95.2309 82.5,94.5C 80.4191,91.2524 77.5858,88.9191 74,87.5C 73.5172,86.552 73.3505,85.552 73.5,84.5C 74.552,84.6495 75.552,84.4828 76.5,84C 72.0429,81.9206 70.0429,78.4206 70.5,73.5C 65.6687,73.8379 64.3354,71.8379 66.5,67.5C 65.1667,67.5 63.8333,67.5 62.5,67.5C 62.2866,70.475 61.2866,73.1416 59.5,75.5C 57.7377,74.3115 56.7377,72.6449 56.5,70.5C 57.7475,67.2005 57.7475,63.8672 56.5,60.5C 60.073,56.3557 63.4063,52.0223 66.5,47.5C 66.1575,45.7748 65.1575,45.2748 63.5,46C 57.4723,48.5434 52.139,52.0434 47.5,56.5C 46.0387,55.3143 44.7054,55.3143 43.5,56.5C 38.1417,59.527 34.1417,63.8603 31.5,69.5C 30.8333,70.1667 30.1667,70.8333 29.5,71.5C 24.1056,76.625 21.1056,82.9583 20.5,90.5C 19.5386,92.2646 19.2053,94.2646 19.5,96.5C 18.662,91.828 16.9954,87.4947 14.5,83.5C 19.3615,74.1459 25.1949,65.4792 32,57.5C 38.4207,48.4126 46.254,40.5792 55.5,34C 60.0978,31.7299 64.4311,29.0632 68.5,26C 71.5256,24.8175 74.5256,23.6508 77.5,22.5C 112.005,8.88502 146.338,9.38502 180.5,24C 189.167,30 197.833,36 206.5,42C 212.345,47.3458 218.012,52.8458 223.5,58.5C 225.609,62.232 227.609,65.8987 229.5,69.5 Z"/></g>
<g><path style="opacity:1" fill="#d8bf59" d="M 66.5,47.5 C 61.9582,50.9232 58.6249,55.2565 56.5,60.5C 51.8223,66.177 46.489,71.177 40.5,75.5C 41.4596,68.6171 43.793,62.2838 47.5,56.5C 52.139,52.0434 57.4723,48.5434 63.5,46C 65.1575,45.2748 66.1575,45.7748 66.5,47.5 Z"/></g>
<g><path style="opacity:1" fill="#721b0b" d="M 185.5,44.5 C 184.957,44.56 184.624,44.8933 184.5,45.5C 186.605,47.5916 188.272,49.9249 189.5,52.5C 185.466,50.5409 183.799,47.5409 184.5,43.5C 185.107,43.6236 185.44,43.9569 185.5,44.5 Z"/></g>
<g><path style="opacity:1" fill="#dac05a" d="M 185.5,44.5 C 191.957,46.5594 197.624,49.8927 202.5,54.5C 206.511,59.8545 209.178,65.8545 210.5,72.5C 210.565,72.9382 210.399,73.2716 210,73.5C 204.998,69.3297 200.164,64.9964 195.5,60.5C 193.984,57.4669 191.984,54.8003 189.5,52.5C 188.272,49.9249 186.605,47.5916 184.5,45.5C 184.624,44.8933 184.957,44.56 185.5,44.5 Z"/></g>
<g><path style="opacity:1" fill="#730f04" d="M 233.5,71.5 C 233.5,71.8333 233.5,72.1667 233.5,72.5C 232.167,71.5 230.833,70.5 229.5,69.5C 227.609,65.8987 225.609,62.232 223.5,58.5C 218.012,52.8458 212.345,47.3458 206.5,42C 197.833,36 189.167,30 180.5,24C 146.338,9.38502 112.005,8.88502 77.5,22.5C 83.4847,19.059 89.8181,16.3923 96.5,14.5C 138.951,4.9678 176.951,14.1345 210.5,42C 219.933,50.5829 227.6,60.4162 233.5,71.5 Z"/></g>
<g><path style="opacity:1" fill="#6c1c0b" d="M 66.5,47.5 C 63.4063,52.0223 60.073,56.3557 56.5,60.5C 58.6249,55.2565 61.9582,50.9232 66.5,47.5 Z"/></g>
<g><path style="opacity:1" fill="#831b08" d="M 189.5,52.5 C 191.984,54.8003 193.984,57.4669 195.5,60.5C 191.62,59.2814 189.62,56.6147 189.5,52.5 Z"/></g>
<g><path style="opacity:1" fill="#86240d" d="M 43.5,56.5 C 44.7054,55.3143 46.0387,55.3143 47.5,56.5C 43.793,62.2838 41.4596,68.6171 40.5,75.5C 40.5,76.5 40.5,77.5 40.5,78.5C 38.832,80.34 37.332,82.34 36,84.5C 37.1453,77.4545 38.8119,70.4545 41,63.5C 42.3767,61.2462 43.8767,59.0795 45.5,57C 44.9056,56.5357 44.2389,56.369 43.5,56.5 Z"/></g>
<g><path style="opacity:1" fill="#d6bd56" d="M 43.5,56.5 C 44.2389,56.369 44.9056,56.5357 45.5,57C 43.8767,59.0795 42.3767,61.2462 41,63.5C 38.8119,70.4545 37.1453,77.4545 36,84.5C 37.332,82.34 38.832,80.34 40.5,78.5C 46.1892,74.4065 51.3559,69.7398 56,64.5C 56.4901,66.5454 56.3235,68.5454 55.5,70.5C 54.8902,71.391 54.5569,72.391 54.5,73.5C 49.8711,79.7966 44.5377,85.4633 38.5,90.5C 35.5001,92.6676 33.0001,95.3343 31,98.5C 30.2453,88.7991 30.412,79.1324 31.5,69.5C 34.1417,63.8603 38.1417,59.527 43.5,56.5 Z"/></g>
<g><path style="opacity:1" fill="#d5bb56" d="M 205.5,54.5 C 212.167,57.8333 217.167,62.8333 220.5,69.5C 221.392,76.7906 221.726,84.1239 221.5,91.5C 221.662,93.5273 221.495,95.5273 221,97.5C 214.627,89.6268 207.461,82.6268 199.5,76.5C 197.754,73.3374 196.254,70.004 195,66.5C 194.235,64.9343 194.402,63.6009 195.5,62.5C 196.242,64.4258 197.242,66.2591 198.5,68C 202.657,70.6641 206.657,73.4975 210.5,76.5C 211.835,78.903 213.502,80.2363 215.5,80.5C 213.604,74.1887 211.771,67.8554 210,61.5C 208.25,59.2657 206.75,56.9324 205.5,54.5 Z"/></g>
<g><path style="opacity:1" fill="#64190b" d="M 56.5,60.5 C 57.7475,63.8672 57.7475,67.2005 56.5,70.5C 56.1667,70.5 55.8333,70.5 55.5,70.5C 56.3235,68.5454 56.4901,66.5454 56,64.5C 51.3559,69.7398 46.1892,74.4065 40.5,78.5C 40.5,77.5 40.5,76.5 40.5,75.5C 46.489,71.177 51.8223,66.177 56.5,60.5 Z"/></g>
<g><path style="opacity:1" fill="#78230e" d="M 195.5,60.5 C 200.164,64.9964 204.998,69.3297 210,73.5C 210.399,73.2716 210.565,72.9382 210.5,72.5C 211.354,73.6316 211.354,74.965 210.5,76.5C 206.657,73.4975 202.657,70.6641 198.5,68C 197.242,66.2591 196.242,64.4258 195.5,62.5C 195.5,61.8333 195.5,61.1667 195.5,60.5 Z"/></g>
<g><path style="opacity:1" fill="#820300" d="M 88.5,94.5 C 90.1683,96.5131 92.1683,98.1797 94.5,99.5C 87.5,99.5 80.5,99.5 73.5,99.5C 73.1667,99.5 72.8333,99.5 72.5,99.5C 68.8183,99.3347 65.1516,99.5014 61.5,100C 60.944,100.383 60.6107,100.883 60.5,101.5C 59.5,102.167 58.5,102.833 57.5,103.5C 56.7876,97.421 53.621,93.0877 48,90.5C 47.6232,91.9423 46.7899,92.9423 45.5,93.5C 46.0592,91.3208 46.7259,89.1542 47.5,87C 47.4301,86.2352 47.0967,85.7352 46.5,85.5C 50.1693,82.1594 52.836,78.1594 54.5,73.5C 54.5569,72.391 54.8902,71.391 55.5,70.5C 55.8333,70.5 56.1667,70.5 56.5,70.5C 56.7377,72.6449 57.7377,74.3115 59.5,75.5C 61.2866,73.1416 62.2866,70.475 62.5,67.5C 63.8333,67.5 65.1667,67.5 66.5,67.5C 64.3354,71.8379 65.6687,73.8379 70.5,73.5C 70.0429,78.4206 72.0429,81.9206 76.5,84C 75.552,84.4828 74.552,84.6495 73.5,84.5C 73.3505,85.552 73.5172,86.552 74,87.5C 77.5858,88.9191 80.4191,91.2524 82.5,94.5C 84.4012,95.2309 86.4012,95.2309 88.5,94.5 Z"/></g>
<g><path style="opacity:1" fill="#901f09" d="M 202.5,54.5 C 203.5,54.5 204.5,54.5 205.5,54.5C 206.75,56.9324 208.25,59.2657 210,61.5C 211.771,67.8554 213.604,74.1887 215.5,80.5C 213.502,80.2363 211.835,78.903 210.5,76.5C 211.354,74.965 211.354,73.6316 210.5,72.5C 209.178,65.8545 206.511,59.8545 202.5,54.5 Z"/></g>
<g><path style="opacity:1" fill="#8f1306" d="M 220.5,69.5 C 221.791,69.2627 222.791,69.596 223.5,70.5C 222.957,70.56 222.624,70.8933 222.5,71.5C 224.185,75.6607 224.852,79.994 224.5,84.5C 223.532,86.6074 223.198,88.9407 223.5,91.5C 222.833,91.5 222.167,91.5 221.5,91.5C 221.726,84.1239 221.392,76.7906 220.5,69.5 Z"/></g>
<g><path style="opacity:1" fill="#551107" d="M 54.5,73.5 C 52.836,78.1594 50.1693,82.1594 46.5,85.5C 45.8333,86.1667 45.1667,86.8333 44.5,87.5C 42.5,88.5 40.5,89.5 38.5,90.5C 44.5377,85.4633 49.8711,79.7966 54.5,73.5 Z"/></g>
<g><path style="opacity:1" fill="#7d0300" d="M 229.5,69.5 C 230.833,70.5 232.167,71.5 233.5,72.5C 234.325,78.85 236.825,84.5166 241,89.5C 244.778,103.173 246.945,117.173 247.5,131.5C 243.135,130.227 238.801,130.227 234.5,131.5C 237.129,123.368 237.962,115.035 237,106.5C 236.76,104.148 235.927,102.148 234.5,100.5C 233.71,101.609 233.21,102.942 233,104.5C 232.826,99.3165 232.326,94.3165 231.5,89.5C 230.829,84.155 229.163,79.155 226.5,74.5C 228.284,75.8934 230.284,76.3934 232.5,76C 230.829,74.1575 229.829,71.9908 229.5,69.5 Z"/></g>
<g><path style="opacity:1" fill="#86270d" d="M 204.5,83.5 C 205.253,88.337 206.586,93.0037 208.5,97.5C 206.658,95.8102 205.325,93.8102 204.5,91.5C 203.503,88.6717 203.503,86.005 204.5,83.5 Z"/></g>
<g><path style="opacity:1" fill="#7d0200" d="M 14.5,83.5 C 16.9954,87.4947 18.662,91.828 19.5,96.5C 19.81,99.7131 19.4767,102.713 18.5,105.5C 18.5386,104.244 18.0386,103.244 17,102.5C 14.382,110.034 13.882,117.7 15.5,125.5C 15.6576,128.902 15.3242,132.236 14.5,135.5C 14.5,136.167 14.5,136.833 14.5,137.5C 13.8333,137.5 13.5,137.833 13.5,138.5C 11.8082,136.486 10.4749,134.152 9.5,131.5C 8.48224,130.807 7.48224,130.141 6.5,129.5C 6.41423,128.504 6.74756,127.671 7.5,127C 6.2405,124.787 5.57383,122.287 5.5,119.5C 5.36292,115.553 6.02959,111.886 7.5,108.5C 7.14472,113.849 6.97805,119.182 7,124.5C 7.88841,120.973 8.72175,117.473 9.5,114C 9.66399,111.456 8.99732,109.29 7.5,107.5C 8.62559,98.9702 10.9589,90.9702 14.5,83.5 Z"/></g>
<g><path style="opacity:1" fill="#a90801" d="M 204.5,91.5 C 205.325,93.8102 206.658,95.8102 208.5,97.5C 209.338,97.8417 209.672,98.5084 209.5,99.5C 210.219,101.764 210.552,104.097 210.5,106.5C 210.5,108.167 210.5,109.833 210.5,111.5C 210.5,114.167 210.5,116.833 210.5,119.5C 206.029,120.089 202.029,119.423 198.5,117.5C 198.5,117.167 198.5,116.833 198.5,116.5C 200.167,115.167 201.833,113.833 203.5,112.5C 204.853,110.872 204.519,109.538 202.5,108.5C 201.5,106.833 200.167,105.5 198.5,104.5C 197.205,103.512 195.872,102.512 194.5,101.5C 194.389,100.883 194.056,100.383 193.5,100C 190.183,99.5017 186.85,99.335 183.5,99.5C 170.167,99.5 156.833,99.5 143.5,99.5C 143.167,102.167 142.833,104.833 142.5,107.5C 141.078,108.925 139.411,109.925 137.5,110.5C 135.801,110.473 134.467,109.806 133.5,108.5C 133.167,106.5 132.833,104.5 132.5,102.5C 133.5,102.5 134.5,102.5 135.5,102.5C 135.714,100.856 135.38,99.3561 134.5,98C 131.298,96.5167 127.964,96.1834 124.5,97C 123.07,101.063 121.903,105.229 121,109.5C 120.329,110.252 119.496,110.586 118.5,110.5C 116.61,110.703 115.11,110.037 114,108.5C 113.155,106.389 112.322,104.389 111.5,102.5C 111.5,101.5 111.5,100.5 111.5,99.5C 105.833,99.5 100.167,99.5 94.5,99.5C 92.1683,98.1797 90.1683,96.5131 88.5,94.5C 117.344,93.7566 146.677,93.4233 176.5,93.5C 179.442,93.8538 182.275,94.5205 185,95.5C 191.634,94.1998 198.134,92.8665 204.5,91.5 Z"/></g>
<g><path style="opacity:1" fill="#761b0a" d="M 199.5,76.5 C 207.461,82.6268 214.627,89.6268 221,97.5C 221.495,95.5273 221.662,93.5273 221.5,91.5C 222.167,91.5 222.833,91.5 223.5,91.5C 223.818,96.0323 223.485,100.366 222.5,104.5C 221.928,102.745 221.094,101.078 220,99.5C 214.603,94.2714 209.436,88.938 204.5,83.5C 202.42,81.4268 200.754,79.0934 199.5,76.5 Z"/></g>
<g><path style="opacity:1" fill="#8e1d09" d="M 31.5,69.5 C 30.412,79.1324 30.2453,88.7991 31,98.5C 33.0001,95.3343 35.5001,92.6676 38.5,90.5C 40.5,89.5 42.5,88.5 44.5,87.5C 40.8427,91.6575 37.0094,95.6575 33,99.5C 31.4138,101.67 30.0804,104.004 29,106.5C 28.5208,98.6653 28.0208,90.832 27.5,83C 27.3523,78.9799 28.0189,75.1465 29.5,71.5C 30.1667,70.8333 30.8333,70.1667 31.5,69.5 Z"/></g>
<g><path style="opacity:1" fill="#d3ba56" d="M 133.5,108.5 C 133.631,109.376 133.298,110.043 132.5,110.5C 128.89,109.153 128.557,109.82 131.5,112.5C 130.649,114.882 129.316,116.882 127.5,118.5C 126.206,116.038 124.706,113.705 123,111.5C 122.578,115.205 121.412,115.872 119.5,113.5C 119.443,112.391 119.11,111.391 118.5,110.5C 119.496,110.586 120.329,110.252 121,109.5C 121.903,105.229 123.07,101.063 124.5,97C 127.964,96.1834 131.298,96.5167 134.5,98C 135.38,99.3561 135.714,100.856 135.5,102.5C 134.5,102.5 133.5,102.5 132.5,102.5C 132.833,104.5 133.167,106.5 133.5,108.5 Z"/></g>
<g><path style="opacity:1" fill="#ddc45c" d="M 72.5,99.5 C 72.5,100.5 72.5,101.5 72.5,102.5C 68.2984,102.817 64.2984,102.483 60.5,101.5C 60.6107,100.883 60.944,100.383 61.5,100C 65.1516,99.5014 68.8183,99.3347 72.5,99.5 Z"/></g>
<g><path style="opacity:1" fill="#d9c15a" d="M 73.5,99.5 C 80.5,99.5 87.5,99.5 94.5,99.5C 100.167,99.5 105.833,99.5 111.5,99.5C 111.5,100.5 111.5,101.5 111.5,102.5C 99.6738,103.66 87.6738,103.826 75.5,103C 74.1772,102.184 73.5106,101.017 73.5,99.5 Z"/></g>
<g><path style="opacity:1" fill="#dfc55c" d="M 183.5,99.5 C 186.85,99.335 190.183,99.5017 193.5,100C 194.056,100.383 194.389,100.883 194.5,101.5C 190.649,102.809 186.649,102.809 182.5,101.5C 182.863,100.817 183.196,100.15 183.5,99.5 Z"/></g>
<g><path style="opacity:1" fill="#d1b852" d="M 29.5,71.5 C 28.0189,75.1465 27.3523,78.9799 27.5,83C 28.0208,90.832 28.5208,98.6653 29,106.5C 30.0804,104.004 31.4138,101.67 33,99.5C 37.0094,95.6575 40.8427,91.6575 44.5,87.5C 45.1667,86.8333 45.8333,86.1667 46.5,85.5C 47.0967,85.7352 47.4301,86.2352 47.5,87C 46.7259,89.1542 46.0592,91.3208 45.5,93.5C 43.9303,96.3135 42.5969,99.3135 41.5,102.5C 35.7583,108.966 31.2583,116.3 28,124.5C 22.7099,113.793 20.2099,102.46 20.5,90.5C 21.1056,82.9583 24.1056,76.625 29.5,71.5 Z"/></g>
<g><path style="opacity:1" fill="#bea74d" d="M 183.5,99.5 C 183.196,100.15 182.863,100.817 182.5,101.5C 186.649,102.809 190.649,102.809 194.5,101.5C 195.872,102.512 197.205,103.512 198.5,104.5C 190.833,104.5 183.167,104.5 175.5,104.5C 174.833,103.167 174.167,103.167 173.5,104.5C 163.75,104.194 154.084,104.527 144.5,105.5C 143.833,106.167 143.167,106.833 142.5,107.5C 142.833,104.833 143.167,102.167 143.5,99.5C 156.833,99.5 170.167,99.5 183.5,99.5 Z"/></g>
<g><path style="opacity:1" fill="#e3cb5f" d="M 144.5,100.5 C 156.851,100.168 169.185,100.501 181.5,101.5C 175.333,101.833 169.167,102.167 163,102.5C 156.462,102.496 150.295,101.83 144.5,100.5 Z"/></g>
<g><path style="opacity:1" fill="#d4bb53" d="M 223.5,70.5 C 224.512,71.8717 225.512,73.205 226.5,74.5C 229.163,79.155 230.829,84.155 231.5,89.5C 231.74,101.614 229.573,113.281 225,124.5C 221.324,115.129 216.157,106.795 209.5,99.5C 209.672,98.5084 209.338,97.8417 208.5,97.5C 206.586,93.0037 205.253,88.337 204.5,83.5C 209.436,88.938 214.603,94.2714 220,99.5C 221.094,101.078 221.928,102.745 222.5,104.5C 222.393,106.379 222.893,106.712 224,105.5C 224.5,98.5079 224.666,91.5079 224.5,84.5C 224.852,79.994 224.185,75.6607 222.5,71.5C 222.624,70.8933 222.957,70.56 223.5,70.5 Z"/></g>
<g><path style="opacity:1" fill="#a17d37" d="M 224.5,84.5 C 224.666,91.5079 224.5,98.5079 224,105.5C 222.893,106.712 222.393,106.379 222.5,104.5C 223.485,100.366 223.818,96.0323 223.5,91.5C 223.198,88.9407 223.532,86.6074 224.5,84.5 Z"/></g>
<g><path style="opacity:1" fill="#a89142" d="M 72.5,99.5 C 72.8333,99.5 73.1667,99.5 73.5,99.5C 73.5106,101.017 74.1772,102.184 75.5,103C 87.6738,103.826 99.6738,103.66 111.5,102.5C 112.322,104.389 113.155,106.389 114,108.5C 115.11,110.037 116.61,110.703 118.5,110.5C 119.11,111.391 119.443,112.391 119.5,113.5C 116.932,115.669 116.932,118.002 119.5,120.5C 118.855,121.646 118.022,122.646 117,123.5C 116.23,122.402 115.397,122.402 114.5,123.5C 114.218,122.222 113.551,121.222 112.5,120.5C 113.5,120.5 114.5,120.5 115.5,120.5C 116.479,115.243 114.979,110.91 111,107.5C 110.517,106.552 110.351,105.552 110.5,104.5C 100.405,103.874 90.5718,104.541 81,106.5C 73.1058,104.551 64.9392,103.884 56.5,104.5C 56.5,103.833 56.8333,103.5 57.5,103.5C 58.5,102.833 59.5,102.167 60.5,101.5C 64.2984,102.483 68.2984,102.817 72.5,102.5C 72.5,101.5 72.5,100.5 72.5,99.5 Z"/></g>
<g><path style="opacity:1" fill="#dfc75c" d="M 56.5,104.5 C 64.9392,103.884 73.1058,104.551 81,106.5C 90.5718,104.541 100.405,103.874 110.5,104.5C 110.351,105.552 110.517,106.552 111,107.5C 114.979,110.91 116.479,115.243 115.5,120.5C 114.5,120.5 113.5,120.5 112.5,120.5C 109.608,117.729 106.942,114.729 104.5,111.5C 104.389,110.883 104.056,110.383 103.5,110C 96.5863,109.814 89.7529,109.314 83,108.5C 72.7352,109.829 62.5686,109.829 52.5,108.5C 53.5,106.833 54.8333,105.5 56.5,104.5 Z"/></g>
<g><path style="opacity:1" fill="#dfc75d" d="M 173.5,104.5 C 173.249,106.17 172.582,107.67 171.5,109C 164.833,109.333 158.167,109.667 151.5,110C 150.748,110.671 150.414,111.504 150.5,112.5C 149.094,112.973 148.427,113.973 148.5,115.5C 146.833,116.5 145.5,117.833 144.5,119.5C 142.883,120.038 141.216,120.371 139.5,120.5C 138.448,115.462 139.948,111.462 144,108.5C 144.483,107.552 144.649,106.552 144.5,105.5C 154.084,104.527 163.75,104.194 173.5,104.5 Z"/></g>
<g><path style="opacity:1" fill="#e1c95e" d="M 175.5,104.5 C 183.167,104.5 190.833,104.5 198.5,104.5C 200.167,105.5 201.5,106.833 202.5,108.5C 192.992,109.823 183.325,109.823 173.5,108.5C 174.18,107.14 174.847,105.807 175.5,104.5 Z"/></g>
<g><path style="opacity:1" fill="#741607" d="M 20.5,90.5 C 20.2099,102.46 22.7099,113.793 28,124.5C 31.2583,116.3 35.7583,108.966 41.5,102.5C 41.1667,103.833 40.8333,105.167 40.5,106.5C 35.7695,113.964 32.1029,121.964 29.5,130.5C 28.8333,132.5 28.1667,134.5 27.5,136.5C 25.2568,128.003 22.4235,119.67 19,111.5C 18.5045,109.527 18.3379,107.527 18.5,105.5C 19.4767,102.713 19.81,99.7131 19.5,96.5C 19.2053,94.2646 19.5386,92.2646 20.5,90.5 Z"/></g>
<g><path style="opacity:1" fill="#917b37" d="M 52.5,108.5 C 62.5686,109.829 72.7352,109.829 83,108.5C 89.7529,109.314 96.5863,109.814 103.5,110C 104.056,110.383 104.389,110.883 104.5,111.5C 103.06,112.363 101.726,112.363 100.5,111.5C 99.4937,111.938 99.4937,112.604 100.5,113.5C 99.4231,114.705 98.0898,115.372 96.5,115.5C 99.1458,112.173 98.1458,111.006 93.5,112C 94.3366,113.011 94.67,114.178 94.5,115.5C 93.6091,114.739 92.9424,113.739 92.5,112.5C 91.3112,111.571 89.9778,111.238 88.5,111.5C 89.1286,114.375 89.9619,117.042 91,119.5C 90.5,119 90,118.5 89.5,118C 79.5056,117.5 69.5056,117.334 59.5,117.5C 58.8333,117.5 58.5,117.167 58.5,116.5C 68.5056,116.666 78.5056,116.5 88.5,116C 87.8333,114.667 87.1667,113.333 86.5,112C 74.9924,111.174 63.6591,111.341 52.5,112.5C 51.1667,111.167 51.1667,109.833 52.5,108.5 Z"/></g>
<g><path style="opacity:1" fill="#a20000" d="M 7.5,107.5 C 8.99732,109.29 9.66399,111.456 9.5,114C 8.72175,117.473 7.88841,120.973 7,124.5C 6.97805,119.182 7.14472,113.849 7.5,108.5C 7.5,108.167 7.5,107.833 7.5,107.5 Z"/></g>
<g><path style="opacity:1" fill="#967e38" d="M 175.5,104.5 C 174.847,105.807 174.18,107.14 173.5,108.5C 183.325,109.823 192.992,109.823 202.5,108.5C 204.519,109.538 204.853,110.872 203.5,112.5C 192.012,111.505 180.345,111.172 168.5,111.5C 168.579,112.93 168.246,114.264 167.5,115.5C 177.812,116.499 188.145,116.832 198.5,116.5C 198.5,116.833 198.5,117.167 198.5,117.5C 197.391,117.557 196.391,117.89 195.5,118.5C 185.659,117.177 175.659,117.177 165.5,118.5C 163.605,121.283 160.939,122.783 157.5,123C 168.495,123.5 179.495,123.667 190.5,123.5C 179.012,124.495 167.345,124.828 155.5,124.5C 156.865,122.249 156.531,120.249 154.5,118.5C 153.391,118.557 152.391,118.89 151.5,119.5C 151.912,117.027 150.912,115.694 148.5,115.5C 148.427,113.973 149.094,112.973 150.5,112.5C 150.414,111.504 150.748,110.671 151.5,110C 158.167,109.667 164.833,109.333 171.5,109C 172.582,107.67 173.249,106.17 173.5,104.5C 174.167,103.167 174.833,103.167 175.5,104.5 Z"/></g>
<g><path style="opacity:1" fill="#dcc459" d="M 58.5,116.5 C 57.391,116.443 56.391,116.11 55.5,115.5C 54.1667,114.833 53.1667,113.833 52.5,112.5C 63.6591,111.341 74.9924,111.174 86.5,112C 87.1667,113.333 87.8333,114.667 88.5,116C 78.5056,116.5 68.5056,116.666 58.5,116.5 Z"/></g>
<g><path style="opacity:1" fill="#d8c058" d="M 96.5,115.5 C 95.8333,115.5 95.1667,115.5 94.5,115.5C 94.67,114.178 94.3366,113.011 93.5,112C 98.1458,111.006 99.1458,112.173 96.5,115.5 Z"/></g>
<g><path style="opacity:1" fill="#ceb653" d="M 150.5,112.5 C 152.068,111.527 153.735,111.36 155.5,112C 154.54,113.419 153.707,114.919 153,116.5C 151.519,115.529 150.685,114.196 150.5,112.5 Z"/></g>
<g><path style="opacity:1" fill="#dcc459" d="M 203.5,112.5 C 201.833,113.833 200.167,115.167 198.5,116.5C 188.145,116.832 177.812,116.499 167.5,115.5C 168.246,114.264 168.579,112.93 168.5,111.5C 180.345,111.172 192.012,111.505 203.5,112.5 Z"/></g>
<g><path style="opacity:1" fill="#bca649" d="M 104.5,111.5 C 106.942,114.729 109.608,117.729 112.5,120.5C 113.551,121.222 114.218,122.222 114.5,123.5C 113.533,124.806 112.199,125.473 110.5,125.5C 108.066,122.303 105.399,119.303 102.5,116.5C 100.812,117.521 99.4787,118.855 98.5,120.5C 96.3411,119.215 95.6745,117.548 96.5,115.5C 98.0898,115.372 99.4231,114.705 100.5,113.5C 99.4937,112.604 99.4937,111.938 100.5,111.5C 101.726,112.363 103.06,112.363 104.5,111.5 Z"/></g>
<g><path style="opacity:1" fill="#d1b953" d="M 154.5,118.5 C 154.137,116.089 155.137,114.589 157.5,114C 157.043,113.586 156.709,113.086 156.5,112.5C 158.167,111.167 159.833,111.167 161.5,112.5C 160.399,114.642 159.399,116.808 158.5,119C 157.181,119.195 155.847,119.028 154.5,118.5 Z"/></g>
<g><path style="opacity:1" fill="#741d0a" d="M 231.5,89.5 C 232.326,94.3165 232.826,99.3165 233,104.5C 233.21,102.942 233.71,101.609 234.5,100.5C 234.039,106.303 232.873,111.97 231,117.5C 227.872,123.553 225.538,129.886 224,136.5C 223.94,131.61 222.94,126.943 221,122.5C 217.221,117.277 214.221,111.61 212,105.5C 211.617,106.056 211.117,106.389 210.5,106.5C 210.552,104.097 210.219,101.764 209.5,99.5C 216.157,106.795 221.324,115.129 225,124.5C 229.573,113.281 231.74,101.614 231.5,89.5 Z"/></g>
<g><path style="opacity:1" fill="#762d10" d="M 55.5,115.5 C 56.391,116.11 57.391,116.443 58.5,116.5C 58.5,117.167 58.8333,117.5 59.5,117.5C 61.1667,119.833 63.1667,121.833 65.5,123.5C 65.5,123.833 65.5,124.167 65.5,124.5C 62.3968,122.577 59.3968,120.41 56.5,118C 55.7476,117.329 55.4142,116.496 55.5,115.5 Z"/></g>
<g><path style="opacity:1" fill="#a40000" d="M 57.5,103.5 C 56.8333,103.5 56.5,103.833 56.5,104.5C 54.8333,105.5 53.5,106.833 52.5,108.5C 51.1667,109.833 51.1667,111.167 52.5,112.5C 53.1667,113.833 54.1667,114.833 55.5,115.5C 55.4142,116.496 55.7476,117.329 56.5,118C 59.3968,120.41 62.3968,122.577 65.5,124.5C 70.6405,125.488 75.9738,125.821 81.5,125.5C 88.321,129.478 95.321,133.311 102.5,137C 106.026,139.026 108.693,141.859 110.5,145.5C 110.135,146.902 109.301,147.902 108,148.5C 106.155,147.048 104.655,145.215 103.5,143C 100.025,142.882 97.0249,141.715 94.5,139.5C 91.2076,142.305 88.8743,145.805 87.5,150C 89.0291,152.525 91.1957,154.358 94,155.5C 94.7401,156.749 94.5735,157.749 93.5,158.5C 91.5,158.5 89.5,158.5 87.5,158.5C 86.5041,158.414 85.6708,158.748 85,159.5C 82.6837,155.035 80.5171,150.535 78.5,146C 73.6394,146.321 70.9727,143.821 70.5,138.5C 68.9547,137.548 67.288,137.215 65.5,137.5C 65.719,136.325 65.3857,135.325 64.5,134.5C 63.2638,135.246 61.9305,135.579 60.5,135.5C 60.607,133.097 59.607,131.264 57.5,130C 51.0549,128.862 45.5549,126.029 41,121.5C 40.51,120.207 40.3433,118.873 40.5,117.5C 41.7146,113.699 41.7146,110.033 40.5,106.5C 40.8333,105.167 41.1667,103.833 41.5,102.5C 42.5969,99.3135 43.9303,96.3135 45.5,93.5C 46.7899,92.9423 47.6232,91.9423 48,90.5C 53.621,93.0877 56.7876,97.421 57.5,103.5 Z"/></g>
<g><path style="opacity:1" fill="#ceb750" d="M 94.5,115.5 C 94.472,117.582 95.1387,119.416 96.5,121C 94.1224,121.974 94.4557,122.641 97.5,123C 86.8385,123.5 76.1719,123.667 65.5,123.5C 63.1667,121.833 61.1667,119.833 59.5,117.5C 69.5056,117.334 79.5056,117.5 89.5,118C 90,118.5 90.5,119 91,119.5C 89.9619,117.042 89.1286,114.375 88.5,111.5C 89.9778,111.238 91.3112,111.571 92.5,112.5C 92.9424,113.739 93.6091,114.739 94.5,115.5 Z"/></g>
<g><path style="opacity:1" fill="#d1b951" d="M 100.5,124.5 C 99.8333,124.5 99.5,124.167 99.5,123.5C 98.8902,122.609 98.5569,121.609 98.5,120.5C 100.017,120.489 101.184,119.823 102,118.5C 104.894,120.911 104.394,122.911 100.5,124.5 Z"/></g>
<g><path style="opacity:1" fill="#d2ba52" d="M 195.5,118.5 C 194.167,120.5 192.5,122.167 190.5,123.5C 179.495,123.667 168.495,123.5 157.5,123C 160.939,122.783 163.605,121.283 165.5,118.5C 175.659,117.177 185.659,117.177 195.5,118.5 Z"/></g>
<g><path style="opacity:1" fill="#9f0200" d="M 210.5,111.5 C 211.942,116.291 212.942,121.291 213.5,126.5C 213.5,127.833 213.5,129.167 213.5,130.5C 211.953,131.768 210.953,133.435 210.5,135.5C 208.608,136.702 206.774,138.035 205,139.5C 204.612,138.572 203.945,137.905 203,137.5C 199.397,139.224 196.563,138.391 194.5,135C 191.026,134.699 187.692,133.866 184.5,132.5C 183.452,133.383 182.285,134.05 181,134.5C 179.535,133.67 178.035,133.504 176.5,134C 174.606,136.524 172.273,137.19 169.5,136C 169.815,137.902 169.815,139.902 169.5,142C 166.512,143.52 163.512,143.686 160.5,142.5C 160.48,140.857 161.147,139.524 162.5,138.5C 160.525,137.422 158.692,137.755 157,139.5C 156.212,146.13 158.378,151.63 163.5,156C 159.604,157.366 155.604,158.533 151.5,159.5C 151.957,160.298 152.624,160.631 153.5,160.5C 153.5,163.5 153.5,166.5 153.5,169.5C 150.789,169.815 148.456,169.148 146.5,167.5C 145.956,164.3 144.29,161.967 141.5,160.5C 141.389,159.883 141.056,159.383 140.5,159C 137.776,158.73 135.109,158.23 132.5,157.5C 128.976,152.223 125.643,146.889 122.5,141.5C 124.148,140.19 125.814,138.857 127.5,137.5C 128.852,138.524 130.185,139.524 131.5,140.5C 133.539,141.911 134.539,143.911 134.5,146.5C 136.481,147.348 138.481,147.848 140.5,148C 142.219,146.13 143.219,143.963 143.5,141.5C 141.62,141.771 140.287,141.104 139.5,139.5C 139.325,137.379 139.659,135.379 140.5,133.5C 141.609,133.443 142.609,133.11 143.5,132.5C 144.492,132.672 145.158,132.338 145.5,131.5C 146.609,131.443 147.609,131.11 148.5,130.5C 149.5,130.167 150.167,129.5 150.5,128.5C 152.191,127.136 153.858,125.803 155.5,124.5C 167.345,124.828 179.012,124.495 190.5,123.5C 192.5,122.167 194.167,120.5 195.5,118.5C 196.391,117.89 197.391,117.557 198.5,117.5C 202.029,119.423 206.029,120.089 210.5,119.5C 210.5,116.833 210.5,114.167 210.5,111.5 Z"/></g>
<g><path style="opacity:1" fill="#c8b14c" d="M 154.5,118.5 C 156.531,120.249 156.865,122.249 155.5,124.5C 153.858,125.803 152.191,127.136 150.5,128.5C 149.163,127.685 148.163,126.518 147.5,125C 149.746,123.743 151.079,121.91 151.5,119.5C 152.391,118.89 153.391,118.557 154.5,118.5 Z"/></g>
<g><path style="opacity:1" fill="#967b34" d="M 144.5,105.5 C 144.649,106.552 144.483,107.552 144,108.5C 139.948,111.462 138.448,115.462 139.5,120.5C 141.216,120.371 142.883,120.038 144.5,119.5C 143.378,120.947 141.878,121.947 140,122.5C 139.219,123.944 139.386,125.277 140.5,126.5C 143.875,125.294 146.875,123.46 149.5,121C 148.549,120.282 148.383,119.449 149,118.5C 149.671,119.252 150.504,119.586 151.5,119.5C 151.079,121.91 149.746,123.743 147.5,125C 148.163,126.518 149.163,127.685 150.5,128.5C 150.167,129.5 149.5,130.167 148.5,130.5C 148.205,128.577 147.372,126.91 146,125.5C 142.979,127.267 142.812,129.267 145.5,131.5C 145.158,132.338 144.492,132.672 143.5,132.5C 143.475,129.821 142.142,128.488 139.5,128.5C 139.216,130.415 139.549,132.081 140.5,133.5C 139.659,135.379 139.325,137.379 139.5,139.5C 138.679,136.359 138.179,133.025 138,129.5C 137.111,130.888 136.611,130.722 136.5,129C 138.944,126.23 138.944,123.397 136.5,120.5C 138.922,118.06 138.922,115.726 136.5,113.5C 137.167,113.167 137.833,112.833 138.5,112.5C 138.137,111.817 137.804,111.15 137.5,110.5C 139.411,109.925 141.078,108.925 142.5,107.5C 143.167,106.833 143.833,106.167 144.5,105.5 Z"/></g>
<g><path style="opacity:1" fill="#bda648" d="M 148.5,115.5 C 150.912,115.694 151.912,117.027 151.5,119.5C 150.504,119.586 149.671,119.252 149,118.5C 148.383,119.449 148.549,120.282 149.5,121C 146.875,123.46 143.875,125.294 140.5,126.5C 139.386,125.277 139.219,123.944 140,122.5C 141.878,121.947 143.378,120.947 144.5,119.5C 145.5,117.833 146.833,116.5 148.5,115.5 Z"/></g>
<g><path style="opacity:1" fill="#8d7733" d="M 110.5,125.5 C 109.504,125.414 108.671,125.748 108,126.5C 106.261,121.277 104.427,121.277 102.5,126.5C 101.833,126.167 101.167,125.833 100.5,125.5C 100.5,125.167 100.5,124.833 100.5,124.5C 104.394,122.911 104.894,120.911 102,118.5C 101.184,119.823 100.017,120.489 98.5,120.5C 99.4787,118.855 100.812,117.521 102.5,116.5C 105.399,119.303 108.066,122.303 110.5,125.5 Z"/></g>
<g><path style="opacity:1" fill="#806b2e" d="M 94.5,115.5 C 95.1667,115.5 95.8333,115.5 96.5,115.5C 95.6745,117.548 96.3411,119.215 98.5,120.5C 98.5569,121.609 98.8902,122.609 99.5,123.5C 88.2476,124.477 76.9143,124.811 65.5,124.5C 65.5,124.167 65.5,123.833 65.5,123.5C 76.1719,123.667 86.8385,123.5 97.5,123C 94.4557,122.641 94.1224,121.974 96.5,121C 95.1387,119.416 94.472,117.582 94.5,115.5 Z"/></g>
<g><path style="opacity:1" fill="#550100" d="M 99.5,123.5 C 99.5,124.167 99.8333,124.5 100.5,124.5C 100.5,124.833 100.5,125.167 100.5,125.5C 94.1667,125.5 87.8333,125.5 81.5,125.5C 75.9738,125.821 70.6405,125.488 65.5,124.5C 76.9143,124.811 88.2476,124.477 99.5,123.5 Z"/></g>
<g><path style="opacity:1" fill="#c6af49" d="M 110.5,125.5 C 112.812,127.652 112.478,129.652 109.5,131.5C 106.63,130.567 104.296,128.9 102.5,126.5C 104.427,121.277 106.261,121.277 108,126.5C 108.671,125.748 109.504,125.414 110.5,125.5 Z"/></g>
<g><path style="opacity:1" fill="#cbb44b" d="M 148.5,130.5 C 147.609,131.11 146.609,131.443 145.5,131.5C 142.812,129.267 142.979,127.267 146,125.5C 147.372,126.91 148.205,128.577 148.5,130.5 Z"/></g>
<g><path style="opacity:1" fill="#8d7831" d="M 114.5,123.5 C 114.354,125.942 115.187,126.609 117,125.5C 117.827,126.662 118.66,127.829 119.5,129C 119.333,129.5 119.167,130 119,130.5C 117.663,128.996 115.996,127.996 114,127.5C 113.153,129.193 112.32,130.86 111.5,132.5C 110.508,132.672 109.842,132.338 109.5,131.5C 112.478,129.652 112.812,127.652 110.5,125.5C 112.199,125.473 113.533,124.806 114.5,123.5 Z"/></g>
<g><path style="opacity:1" fill="#ccb44a" d="M 143.5,132.5 C 142.609,133.11 141.609,133.443 140.5,133.5C 139.549,132.081 139.216,130.415 139.5,128.5C 142.142,128.488 143.475,129.821 143.5,132.5 Z"/></g>
<g><path style="opacity:1" fill="#9b0000" d="M 6.5,129.5 C 7.48224,130.141 8.48224,130.807 9.5,131.5C 10.4749,134.152 11.8082,136.486 13.5,138.5C 12.5588,140.466 11.5588,142.466 10.5,144.5C 11.7699,148.484 11.7699,152.484 10.5,156.5C 9.81815,155.757 9.15149,155.091 8.5,154.5C 6.30428,146.223 5.63762,137.889 6.5,129.5 Z"/></g>
<g><path style="opacity:1" fill="#b29b3f" d="M 133.5,108.5 C 134.467,109.806 135.801,110.473 137.5,110.5C 137.804,111.15 138.137,111.817 138.5,112.5C 137.833,112.833 137.167,113.167 136.5,113.5C 138.922,115.726 138.922,118.06 136.5,120.5C 138.944,123.397 138.944,126.23 136.5,129C 136.611,130.722 137.111,130.888 138,129.5C 138.179,133.025 138.679,136.359 139.5,139.5C 140.287,141.104 141.62,141.771 143.5,141.5C 143.219,143.963 142.219,146.13 140.5,148C 138.481,147.848 136.481,147.348 134.5,146.5C 134.539,143.911 133.539,141.911 131.5,140.5C 130.945,138.271 129.611,136.605 127.5,135.5C 125.062,136.931 123.396,138.931 122.5,141.5C 120.787,142.635 120.12,144.302 120.5,146.5C 118.071,146.884 115.737,147.551 113.5,148.5C 113.523,146.4 112.856,144.567 111.5,143C 111.63,141.941 112.13,141.108 113,140.5C 113.667,141.833 114.333,141.833 115,140.5C 115.346,138.782 115.846,137.115 116.5,135.5C 114.855,134.304 113.189,133.304 111.5,132.5C 112.32,130.86 113.153,129.193 114,127.5C 115.996,127.996 117.663,128.996 119,130.5C 119.167,130 119.333,129.5 119.5,129C 118.66,127.829 117.827,126.662 117,125.5C 115.187,126.609 114.354,125.942 114.5,123.5C 115.397,122.402 116.23,122.402 117,123.5C 118.022,122.646 118.855,121.646 119.5,120.5C 116.932,118.002 116.932,115.669 119.5,113.5C 121.412,115.872 122.578,115.205 123,111.5C 124.706,113.705 126.206,116.038 127.5,118.5C 129.316,116.882 130.649,114.882 131.5,112.5C 128.557,109.82 128.89,109.153 132.5,110.5C 133.298,110.043 133.631,109.376 133.5,108.5 Z"/></g>
<g><path style="opacity:1" fill="#761908" d="M 213.5,126.5 C 215.767,131.547 217.434,136.88 218.5,142.5C 218.5,143.5 218.5,144.5 218.5,145.5C 216.672,139.296 215.672,139.296 215.5,145.5C 213.762,140.783 213.096,135.783 213.5,130.5C 213.5,129.167 213.5,127.833 213.5,126.5 Z"/></g>
<g><path style="opacity:1" fill="#ccb34d" d="M 18.5,105.5 C 18.3379,107.527 18.5045,109.527 19,111.5C 22.4235,119.67 25.2568,128.003 27.5,136.5C 27.238,137.978 27.5713,139.311 28.5,140.5C 29.487,137.232 29.8204,133.898 29.5,130.5C 32.1029,121.964 35.7695,113.964 40.5,106.5C 41.7146,110.033 41.7146,113.699 40.5,117.5C 39.5269,119.948 39.1936,122.615 39.5,125.5C 35.1502,134.913 32.9835,144.913 33,155.5C 24.3543,147.049 18.521,137.049 15.5,125.5C 13.882,117.7 14.382,110.034 17,102.5C 18.0386,103.244 18.5386,104.244 18.5,105.5 Z"/></g>
<g><path style="opacity:1" fill="#ceb54e" d="M 234.5,100.5 C 235.927,102.148 236.76,104.148 237,106.5C 237.962,115.035 237.129,123.368 234.5,131.5C 234.5,131.833 234.5,132.167 234.5,132.5C 230.539,138.808 226.539,145.141 222.5,151.5C 221.5,151.833 220.833,152.5 220.5,153.5C 219.833,149.833 219.167,146.167 218.5,142.5C 217.434,136.88 215.767,131.547 213.5,126.5C 212.942,121.291 211.942,116.291 210.5,111.5C 210.5,109.833 210.5,108.167 210.5,106.5C 211.117,106.389 211.617,106.056 212,105.5C 214.221,111.61 217.221,117.277 221,122.5C 222.94,126.943 223.94,131.61 224,136.5C 225.538,129.886 227.872,123.553 231,117.5C 232.873,111.97 234.039,106.303 234.5,100.5 Z"/></g>
<g><path style="opacity:1" fill="#970501" d="M 247.5,131.5 C 246.497,153.906 239.83,174.239 227.5,192.5C 225.633,192.045 223.8,191.378 222,190.5C 220.674,190.755 219.674,191.422 219,192.5C 218.342,190.892 218.842,189.725 220.5,189C 219.5,188.667 218.5,188.333 217.5,188C 220.118,185.894 222.118,183.394 223.5,180.5C 225.912,176.006 228.079,171.339 230,166.5C 230.74,165.251 230.573,164.251 229.5,163.5C 229.5,162.833 229.5,162.167 229.5,161.5C 235.361,153.081 237.861,143.748 237,133.5C 236.487,134.527 235.987,135.527 235.5,136.5C 234.566,135.432 234.232,134.099 234.5,132.5C 234.5,132.167 234.5,131.833 234.5,131.5C 238.801,130.227 243.135,130.227 247.5,131.5 Z"/></g>
<g><path style="opacity:1" fill="#791f08" d="M 131.5,140.5 C 130.185,139.524 128.852,138.524 127.5,137.5C 125.814,138.857 124.148,140.19 122.5,141.5C 123.396,138.931 125.062,136.931 127.5,135.5C 129.611,136.605 130.945,138.271 131.5,140.5 Z"/></g>
<g><path style="opacity:1" fill="#7b0400" d="M 210.5,135.5 C 210.198,138.373 209.531,141.039 208.5,143.5C 208.631,142.624 208.298,141.957 207.5,141.5C 203.9,141.726 201.234,143.392 199.5,146.5C 198.675,147.386 197.675,147.719 196.5,147.5C 196.5,149.833 196.5,152.167 196.5,154.5C 199.786,153.793 203.119,153.46 206.5,153.5C 206.595,151.214 207.262,149.214 208.5,147.5C 207.859,153.477 207.359,159.477 207,165.5C 206.164,170.503 204.664,175.17 202.5,179.5C 202.135,177.412 202.135,175.079 202.5,172.5C 202.718,166.33 203.552,160.33 205,154.5C 198.157,162.486 193.324,171.486 190.5,181.5C 190.5,180.833 190.5,180.167 190.5,179.5C 189.652,178.375 188.652,178.375 187.5,179.5C 185.254,179.064 183.087,178.397 181,177.5C 178.667,178.5 176.333,179.5 174,180.5C 173.329,179.748 172.496,179.414 171.5,179.5C 168.666,177.498 166.333,174.998 164.5,172C 169.65,167.736 169.65,163.736 164.5,160C 160.642,159.19 156.976,159.357 153.5,160.5C 152.624,160.631 151.957,160.298 151.5,159.5C 155.604,158.533 159.604,157.366 163.5,156C 158.378,151.63 156.212,146.13 157,139.5C 158.692,137.755 160.525,137.422 162.5,138.5C 161.147,139.524 160.48,140.857 160.5,142.5C 163.512,143.686 166.512,143.52 169.5,142C 169.815,139.902 169.815,137.902 169.5,136C 172.273,137.19 174.606,136.524 176.5,134C 178.035,133.504 179.535,133.67 181,134.5C 182.285,134.05 183.452,133.383 184.5,132.5C 187.692,133.866 191.026,134.699 194.5,135C 196.563,138.391 199.397,139.224 203,137.5C 203.945,137.905 204.612,138.572 205,139.5C 206.774,138.035 208.608,136.702 210.5,135.5 Z"/></g>
<g><path style="opacity:1" fill="#7a0400" d="M 40.5,117.5 C 40.3433,118.873 40.51,120.207 41,121.5C 45.5549,126.029 51.0549,128.862 57.5,130C 59.607,131.264 60.607,133.097 60.5,135.5C 61.9305,135.579 63.2638,135.246 64.5,134.5C 65.3857,135.325 65.719,136.325 65.5,137.5C 67.288,137.215 68.9547,137.548 70.5,138.5C 70.9727,143.821 73.6394,146.321 78.5,146C 80.5171,150.535 82.6837,155.035 85,159.5C 85.6708,158.748 86.5041,158.414 87.5,158.5C 82.9686,161.684 82.3019,165.684 85.5,170.5C 85.1589,175.028 82.9922,176.361 79,174.5C 78.3162,173.216 78.4829,172.049 79.5,171C 75.8724,171.41 72.5391,171.91 69.5,172.5C 69.6309,173.376 69.2975,174.043 68.5,174.5C 65.3498,174.766 62.6832,175.766 60.5,177.5C 57.3801,169.935 53.2134,162.935 48,156.5C 49.2527,164.839 50.7527,173.172 52.5,181.5C 51.8333,181.5 51.1667,181.5 50.5,181.5C 48.0949,177.244 46.5949,172.577 46,167.5C 45.2881,156.375 43.7881,145.375 41.5,134.5C 39.9562,131.752 39.2895,128.752 39.5,125.5C 39.1936,122.615 39.5269,119.948 40.5,117.5 Z"/></g>
<g><path style="opacity:1" fill="#780801" d="M 81.5,125.5 C 87.8333,125.5 94.1667,125.5 100.5,125.5C 101.167,125.833 101.833,126.167 102.5,126.5C 104.296,128.9 106.63,130.567 109.5,131.5C 109.842,132.338 110.508,132.672 111.5,132.5C 113.189,133.304 114.855,134.304 116.5,135.5C 115.846,137.115 115.346,138.782 115,140.5C 114.333,141.833 113.667,141.833 113,140.5C 112.13,141.108 111.63,141.941 111.5,143C 112.856,144.567 113.523,146.4 113.5,148.5C 115.737,147.551 118.071,146.884 120.5,146.5C 120.12,144.302 120.787,142.635 122.5,141.5C 125.643,146.889 128.976,152.223 132.5,157.5C 135.109,158.23 137.776,158.73 140.5,159C 141.056,159.383 141.389,159.883 141.5,160.5C 129.002,156.395 122.335,160.728 121.5,173.5C 120.942,175.789 119.776,177.789 118,179.5C 115.266,179.367 112.599,179.367 110,179.5C 108.681,177.75 108.181,175.75 108.5,173.5C 111.01,173.946 113.01,173.28 114.5,171.5C 118.327,167.585 118.327,163.752 114.5,160C 110.311,159.188 106.311,159.355 102.5,160.5C 102.666,166.176 102.499,171.843 102,177.5C 100.416,178.861 98.5824,179.528 96.5,179.5C 96.7845,177.585 96.4511,175.919 95.5,174.5C 92.724,170.622 89.724,166.955 86.5,163.5C 89.0034,159.597 91.8368,159.597 95,163.5C 95.64,161.457 95.14,159.79 93.5,158.5C 94.5735,157.749 94.7401,156.749 94,155.5C 91.1957,154.358 89.0291,152.525 87.5,150C 88.8743,145.805 91.2076,142.305 94.5,139.5C 97.0249,141.715 100.025,142.882 103.5,143C 104.655,145.215 106.155,147.048 108,148.5C 109.301,147.902 110.135,146.902 110.5,145.5C 108.693,141.859 106.026,139.026 102.5,137C 95.321,133.311 88.321,129.478 81.5,125.5 Z"/></g>
<g><path style="opacity:1" fill="#6d1507" d="M 15.5,125.5 C 18.521,137.049 24.3543,147.049 33,155.5C 32.9835,144.913 35.1502,134.913 39.5,125.5C 39.2895,128.752 39.9562,131.752 41.5,134.5C 40.1751,133.047 39.3418,133.381 39,135.5C 36.7798,145.138 36.1132,154.805 37,164.5C 31.3333,158.167 25.6667,151.833 20,145.5C 18.2336,141.938 16.4002,138.605 14.5,135.5C 15.3242,132.236 15.6576,128.902 15.5,125.5 Z"/></g>
<g><path style="opacity:1" fill="#987832" d="M 29.5,130.5 C 29.8204,133.898 29.487,137.232 28.5,140.5C 27.5713,139.311 27.238,137.978 27.5,136.5C 28.1667,134.5 28.8333,132.5 29.5,130.5 Z"/></g>
<g><path style="opacity:1" fill="#9f0000" d="M 208.5,143.5 C 208.5,144.833 208.5,146.167 208.5,147.5C 207.262,149.214 206.595,151.214 206.5,153.5C 203.119,153.46 199.786,153.793 196.5,154.5C 196.5,152.167 196.5,149.833 196.5,147.5C 197.675,147.719 198.675,147.386 199.5,146.5C 201.234,143.392 203.9,141.726 207.5,141.5C 208.298,141.957 208.631,142.624 208.5,143.5 Z"/></g>
<g><path style="opacity:1" fill="#641e0b" d="M 234.5,132.5 C 234.232,134.099 234.566,135.432 235.5,136.5C 235.5,136.833 235.5,137.167 235.5,137.5C 234.325,137.281 233.325,137.614 232.5,138.5C 229.873,143.443 226.539,147.777 222.5,151.5C 226.539,145.141 230.539,138.808 234.5,132.5 Z"/></g>
<g><path style="opacity:1" fill="#c4ab47" d="M 41.5,134.5 C 43.7881,145.375 45.2881,156.375 46,167.5C 46.5949,172.577 48.0949,177.244 50.5,181.5C 50.44,182.043 50.1067,182.376 49.5,182.5C 39.9181,176.58 30.9181,169.913 22.5,162.5C 17.5344,154.994 14.8678,146.66 14.5,137.5C 14.5,136.833 14.5,136.167 14.5,135.5C 16.4002,138.605 18.2336,141.938 20,145.5C 25.6667,151.833 31.3333,158.167 37,164.5C 36.1132,154.805 36.7798,145.138 39,135.5C 39.3418,133.381 40.1751,133.047 41.5,134.5 Z"/></g>
<g><path style="opacity:1" fill="#760802" d="M 142.5,169.5 C 142.712,181.158 137.878,184.158 128,178.5C 125.868,174.792 125.035,170.792 125.5,166.5C 129.687,159.301 134.854,158.634 141,164.5C 142.009,166.025 142.509,167.692 142.5,169.5 Z"/></g>
<g><path style="opacity:1" fill="#d1b44d" d="M 171.5,179.5 C 173.859,182.395 172.859,183.228 168.5,182C 166.034,179.521 163.701,177.021 161.5,174.5C 160.432,173.566 159.099,173.232 157.5,173.5C 157.661,176.81 157.661,179.81 157.5,182.5C 155.801,182.66 154.134,182.494 152.5,182C 153.464,177.934 153.797,173.767 153.5,169.5C 153.5,166.5 153.5,163.5 153.5,160.5C 156.976,159.357 160.642,159.19 164.5,160C 169.65,163.736 169.65,167.736 164.5,172C 166.333,174.998 168.666,177.498 171.5,179.5 Z"/></g>
<g><path style="opacity:1" fill="#c7ae48" d="M 213.5,130.5 C 213.096,135.783 213.762,140.783 215.5,145.5C 215.5,146.5 215.5,147.5 215.5,148.5C 215.562,153.92 215.395,159.253 215,164.5C 215.717,163.956 216.217,163.289 216.5,162.5C 221.428,156.397 226.594,150.397 232,144.5C 233.705,142.423 234.872,140.09 235.5,137.5C 235.5,137.167 235.5,136.833 235.5,136.5C 235.987,135.527 236.487,134.527 237,133.5C 237.861,143.748 235.361,153.081 229.5,161.5C 221.145,168.765 212.311,175.432 203,181.5C 202.536,180.906 202.369,180.239 202.5,179.5C 204.664,175.17 206.164,170.503 207,165.5C 207.359,159.477 207.859,153.477 208.5,147.5C 208.5,146.167 208.5,144.833 208.5,143.5C 209.531,141.039 210.198,138.373 210.5,135.5C 210.953,133.435 211.953,131.768 213.5,130.5 Z"/></g>
<g><path style="opacity:1" fill="#803413" d="M 215.5,148.5 C 216.486,152.97 216.819,157.637 216.5,162.5C 216.217,163.289 215.717,163.956 215,164.5C 215.395,159.253 215.562,153.92 215.5,148.5 Z"/></g>
<g><path style="opacity:1" fill="#921003" d="M 235.5,137.5 C 234.872,140.09 233.705,142.423 232,144.5C 226.594,150.397 221.428,156.397 216.5,162.5C 216.819,157.637 216.486,152.97 215.5,148.5C 215.5,147.5 215.5,146.5 215.5,145.5C 215.672,139.296 216.672,139.296 218.5,145.5C 218.183,148.572 218.516,151.572 219.5,154.5C 220.107,154.376 220.44,154.043 220.5,153.5C 220.833,152.5 221.5,151.833 222.5,151.5C 226.539,147.777 229.873,143.443 232.5,138.5C 233.325,137.614 234.325,137.281 235.5,137.5 Z"/></g>
<g><path style="opacity:1" fill="#926028" d="M 218.5,142.5 C 219.167,146.167 219.833,149.833 220.5,153.5C 220.44,154.043 220.107,154.376 219.5,154.5C 218.516,151.572 218.183,148.572 218.5,145.5C 218.5,144.5 218.5,143.5 218.5,142.5 Z"/></g>
<g><path style="opacity:1" fill="#7f1205" d="M 157.5,160.5 C 162.006,160.008 164.339,162.008 164.5,166.5C 164.174,170.813 161.841,172.48 157.5,171.5C 157.5,167.833 157.5,164.167 157.5,160.5 Z"/></g>
<g><path style="opacity:1" fill="#ddc253" d="M 141.5,160.5 C 144.29,161.967 145.956,164.3 146.5,167.5C 146.5,169.5 146.5,171.5 146.5,173.5C 145.5,173.5 144.5,173.5 143.5,173.5C 143.768,171.901 143.434,170.568 142.5,169.5C 142.509,167.692 142.009,166.025 141,164.5C 134.854,158.634 129.687,159.301 125.5,166.5C 124.532,168.607 124.198,170.941 124.5,173.5C 123.5,173.5 122.5,173.5 121.5,173.5C 122.335,160.728 129.002,156.395 141.5,160.5 Z"/></g>
<g><path style="opacity:1" fill="#c2aa44" d="M 60.5,177.5 C 60.5,177.833 60.5,178.167 60.5,178.5C 62.351,186.539 66.0177,193.539 71.5,199.5C 56.0768,200.465 42.7434,195.465 31.5,184.5C 28.1844,179.88 25.351,174.88 23,169.5C 22.235,167.934 22.4017,166.601 23.5,165.5C 25.1585,169.672 27.8252,173.172 31.5,176C 36.2432,179.038 41.2432,181.538 46.5,183.5C 49.4708,186.149 52.8042,187.982 56.5,189C 54.5038,186.838 53.1705,184.338 52.5,181.5C 50.7527,173.172 49.2527,164.839 48,156.5C 53.2134,162.935 57.3801,169.935 60.5,177.5 Z"/></g>
<g><path style="opacity:1" fill="#cfb24d" d="M 87.5,158.5 C 89.5,158.5 91.5,158.5 93.5,158.5C 95.14,159.79 95.64,161.457 95,163.5C 91.8368,159.597 89.0034,159.597 86.5,163.5C 89.724,166.955 92.724,170.622 95.5,174.5C 95.2441,181.579 91.5774,184.412 84.5,183C 82.5819,181.23 82.0819,179.063 83,176.5C 83.7756,180.95 86.2756,182.45 90.5,181C 92.3249,179.534 92.8249,177.701 92,175.5C 90.0737,173.461 87.907,171.794 85.5,170.5C 82.3019,165.684 82.9686,161.684 87.5,158.5 Z"/></g>
<g><path style="opacity:1" fill="#c3ab45" d="M 202.5,172.5 C 200.791,178.907 198.291,184.907 195,190.5C 199.099,186.87 203.599,183.87 208.5,181.5C 217.63,178.619 224.297,172.953 228.5,164.5C 229.167,164.5 229.5,164.167 229.5,163.5C 230.573,164.251 230.74,165.251 230,166.5C 228.079,171.339 225.912,176.006 223.5,180.5C 220.833,182.5 218.5,184.833 216.5,187.5C 206.028,194.658 194.362,198.658 181.5,199.5C 186.085,194.331 189.085,188.331 190.5,181.5C 193.324,171.486 198.157,162.486 205,154.5C 203.552,160.33 202.718,166.33 202.5,172.5 Z"/></g>
<g><path style="opacity:1" fill="#8e0d03" d="M 146.5,167.5 C 148.456,169.148 150.789,169.815 153.5,169.5C 153.797,173.767 153.464,177.934 152.5,182C 154.134,182.494 155.801,182.66 157.5,182.5C 160.512,185.369 159.845,186.702 155.5,186.5C 150.956,185.812 146.789,184.146 143,181.5C 144.227,179.028 145.393,176.361 146.5,173.5C 146.5,171.5 146.5,169.5 146.5,167.5 Z"/></g>
<g><path style="opacity:1" fill="#700400" d="M 14.5,137.5 C 14.8678,146.66 17.5344,154.994 22.5,162.5C 22.5569,163.609 22.8902,164.609 23.5,165.5C 22.4017,166.601 22.235,167.934 23,169.5C 25.351,174.88 28.1844,179.88 31.5,184.5C 33.4593,188.126 36.126,191.126 39.5,193.5C 40.1667,195.167 40.8333,196.833 41.5,198.5C 44.9268,204.59 49.9268,208.923 56.5,211.5C 56.7989,213.604 56.4656,215.604 55.5,217.5C 50.3092,216.474 45.9759,213.974 42.5,210C 40.3716,209.345 38.3716,208.511 36.5,207.5C 33.057,202.057 28.7237,197.723 23.5,194.5C 22.6618,194.158 22.3284,193.492 22.5,192.5C 22.5793,189.729 22.0793,187.063 21,184.5C 15.1716,176.182 11.0049,167.182 8.5,157.5C 8.5,156.5 8.5,155.5 8.5,154.5C 9.15149,155.091 9.81815,155.757 10.5,156.5C 11.7699,152.484 11.7699,148.484 10.5,144.5C 11.5588,142.466 12.5588,140.466 13.5,138.5C 13.5,137.833 13.8333,137.5 14.5,137.5 Z"/></g>
<g><path style="opacity:1" fill="#970400" d="M 69.5,172.5 C 71.9285,173.39 74.2618,173.723 76.5,173.5C 75.0966,175.731 73.9299,178.064 73,180.5C 72.9605,182.724 72.7938,184.724 72.5,186.5C 69.4181,184.628 66.7514,182.295 64.5,179.5C 63.4324,178.566 62.099,178.232 60.5,178.5C 60.5,178.167 60.5,177.833 60.5,177.5C 62.6832,175.766 65.3498,174.766 68.5,174.5C 69.2975,174.043 69.6309,173.376 69.5,172.5 Z"/></g>
<g><path style="opacity:1" fill="#d2b74f" d="M 102.5,160.5 C 106.311,159.355 110.311,159.188 114.5,160C 118.327,163.752 118.327,167.585 114.5,171.5C 108.944,173.073 108.444,172.407 113,169.5C 114.986,163.944 113.153,160.944 107.5,160.5C 107.187,167.755 107.52,174.921 108.5,182C 106.5,182.667 104.5,182.667 102.5,182C 103.827,174.735 103.827,167.568 102.5,160.5 Z"/></g>
<g><path style="opacity:1" fill="#6c0f04" d="M 23.5,165.5 C 31.0243,171.752 38.6909,177.752 46.5,183.5C 41.2432,181.538 36.2432,179.038 31.5,176C 27.8252,173.172 25.1585,169.672 23.5,165.5 Z"/></g>
<g><path style="opacity:1" fill="#8a1505" d="M 228.5,164.5 C 224.297,172.953 217.63,178.619 208.5,181.5C 208.511,179.983 209.177,178.816 210.5,178C 216.943,174.053 222.943,169.553 228.5,164.5 Z"/></g>
<g><path style="opacity:1" fill="#4d0a04" d="M 7.5,157.5 C 7.83333,157.5 8.16667,157.5 8.5,157.5C 11.0049,167.182 15.1716,176.182 21,184.5C 22.0793,187.063 22.5793,189.729 22.5,192.5C 15.0921,182.002 10.0921,170.335 7.5,157.5 Z"/></g>
<g><path style="opacity:1" fill="#730701" d="M 102.5,160.5 C 103.827,167.568 103.827,174.735 102.5,182C 104.5,182.667 106.5,182.667 108.5,182C 107.52,174.921 107.187,167.755 107.5,160.5C 113.153,160.944 114.986,163.944 113,169.5C 108.444,172.407 108.944,173.073 114.5,171.5C 113.01,173.28 111.01,173.946 108.5,173.5C 108.181,175.75 108.681,177.75 110,179.5C 112.599,179.367 115.266,179.367 118,179.5C 119.776,177.789 120.942,175.789 121.5,173.5C 122.535,177.403 124.868,180.237 128.5,182C 132.5,182.333 136.5,182.667 140.5,183C 148.717,189.818 157.717,191.152 167.5,187C 163.364,187.642 159.364,187.475 155.5,186.5C 159.845,186.702 160.512,185.369 157.5,182.5C 157.661,179.81 157.661,176.81 157.5,173.5C 159.099,173.232 160.432,173.566 161.5,174.5C 163.701,177.021 166.034,179.521 168.5,182C 172.859,183.228 173.859,182.395 171.5,179.5C 172.496,179.414 173.329,179.748 174,180.5C 176.333,179.5 178.667,178.5 181,177.5C 183.087,178.397 185.254,179.064 187.5,179.5C 181.395,185.103 175.395,190.936 169.5,197C 163.962,200.76 158.296,203.927 152.5,206.5C 152.5,206.833 152.5,207.167 152.5,207.5C 147.818,206.074 142.985,205.407 138,205.5C 130.333,206.833 122.667,206.833 115,205.5C 109.235,205.16 103.735,206.16 98.5,208.5C 97.791,207.596 96.791,207.263 95.5,207.5C 96.6085,206.71 97.9419,206.21 99.5,206C 94.2951,204.046 89.2951,201.713 84.5,199C 80.2964,194.964 76.2964,190.798 72.5,186.5C 72.7938,184.724 72.9605,182.724 73,180.5C 73.9299,178.064 75.0966,175.731 76.5,173.5C 74.2618,173.723 71.9285,173.39 69.5,172.5C 72.5391,171.91 75.8724,171.41 79.5,171C 78.4829,172.049 78.3162,173.216 79,174.5C 82.9922,176.361 85.1589,175.028 85.5,170.5C 87.907,171.794 90.0737,173.461 92,175.5C 92.8249,177.701 92.3249,179.534 90.5,181C 86.2756,182.45 83.7756,180.95 83,176.5C 82.0819,179.063 82.5819,181.23 84.5,183C 91.5774,184.412 95.2441,181.579 95.5,174.5C 96.4511,175.919 96.7845,177.585 96.5,179.5C 98.5824,179.528 100.416,178.861 102,177.5C 102.499,171.843 102.666,166.176 102.5,160.5 Z"/></g>
<g><path style="opacity:1" fill="#940000" d="M 161.5,174.5 C 161.435,177.846 162.768,180.346 165.5,182C 163.149,183.461 160.982,182.961 159,180.5C 158.09,177.69 158.923,175.69 161.5,174.5 Z"/></g>
<g><path style="opacity:1" fill="#5f0a03" d="M 233.5,71.5 C 248.57,97.2542 253.07,124.921 247,154.5C 243.707,168.24 238.207,180.907 230.5,192.5C 229.5,192.5 228.5,192.5 227.5,192.5C 239.83,174.239 246.497,153.906 247.5,131.5C 246.945,117.173 244.778,103.173 241,89.5C 236.825,84.5166 234.325,78.85 233.5,72.5C 233.5,72.1667 233.5,71.8333 233.5,71.5 Z"/></g>
<g><path style="opacity:1" fill="#c7ac4a" d="M 125.5,166.5 C 125.035,170.792 125.868,174.792 128,178.5C 137.878,184.158 142.712,181.158 142.5,169.5C 143.434,170.568 143.768,171.901 143.5,173.5C 144.5,173.5 145.5,173.5 146.5,173.5C 145.393,176.361 144.227,179.028 143,181.5C 146.789,184.146 150.956,185.812 155.5,186.5C 159.364,187.475 163.364,187.642 167.5,187C 157.717,191.152 148.717,189.818 140.5,183C 136.5,182.667 132.5,182.333 128.5,182C 124.868,180.237 122.535,177.403 121.5,173.5C 122.5,173.5 123.5,173.5 124.5,173.5C 124.198,170.941 124.532,168.607 125.5,166.5 Z"/></g>
<g><path style="opacity:1" fill="#561407" d="M 22.5,162.5 C 30.9181,169.913 39.9181,176.58 49.5,182.5C 50.1067,182.376 50.44,182.043 50.5,181.5C 51.1667,181.5 51.8333,181.5 52.5,181.5C 53.1705,184.338 54.5038,186.838 56.5,189C 52.8042,187.982 49.4708,186.149 46.5,183.5C 38.6909,177.752 31.0243,171.752 23.5,165.5C 22.8902,164.609 22.5569,163.609 22.5,162.5 Z"/></g>
<g><path style="opacity:1" fill="#701506" d="M 60.5,178.5 C 62.099,178.232 63.4324,178.566 64.5,179.5C 63.6236,179.369 62.9569,179.702 62.5,180.5C 65.4464,185.395 68.1131,190.395 70.5,195.5C 70.8333,196.833 71.1667,198.167 71.5,199.5C 66.0177,193.539 62.351,186.539 60.5,178.5 Z"/></g>
<g><path style="opacity:1" fill="#5a1206" d="M 229.5,161.5 C 229.5,162.167 229.5,162.833 229.5,163.5C 229.5,164.167 229.167,164.5 228.5,164.5C 222.943,169.553 216.943,174.053 210.5,178C 209.177,178.816 208.511,179.983 208.5,181.5C 203.599,183.87 199.099,186.87 195,190.5C 198.291,184.907 200.791,178.907 202.5,172.5C 202.135,175.079 202.135,177.412 202.5,179.5C 202.369,180.239 202.536,180.906 203,181.5C 212.311,175.432 221.145,168.765 229.5,161.5 Z"/></g>
<g><path style="opacity:1" fill="#411309" d="M 216.5,187.5 C 215.25,189.154 213.916,190.821 212.5,192.5C 211.833,192.833 211.167,193.167 210.5,193.5C 201.278,198.344 191.612,200.344 181.5,199.5C 194.362,198.658 206.028,194.658 216.5,187.5 Z"/></g>
<g><path style="opacity:1" fill="#440e06" d="M 31.5,184.5 C 42.7434,195.465 56.0768,200.465 71.5,199.5C 71.1667,198.167 70.8333,196.833 70.5,195.5C 73.2041,200.02 77.2041,202.853 82.5,204C 77.5038,203.835 72.5038,203.335 67.5,202.5C 58.6332,200.779 49.9666,198.112 41.5,194.5C 40.8333,194.167 40.1667,193.833 39.5,193.5C 36.126,191.126 33.4593,188.126 31.5,184.5 Z"/></g>
<g><path style="opacity:1" fill="#5e1005" d="M 190.5,179.5 C 190.5,180.167 190.5,180.833 190.5,181.5C 189.085,188.331 186.085,194.331 181.5,199.5C 191.612,200.344 201.278,198.344 210.5,193.5C 207.384,197.059 203.384,199.225 198.5,200C 189.514,201.465 180.514,202.465 171.5,203C 175.274,201.698 178.441,199.531 181,196.5C 183.673,190.48 186.84,184.813 190.5,179.5 Z"/></g>
<g><path style="opacity:1" fill="#c1a942" d="M 64.5,179.5 C 66.7514,182.295 69.4181,184.628 72.5,186.5C 76.2964,190.798 80.2964,194.964 84.5,199C 89.2951,201.713 94.2951,204.046 99.5,206C 97.9419,206.21 96.6085,206.71 95.5,207.5C 90.1018,208.365 84.7685,209.532 79.5,211C 64.286,214.204 51.6194,210.037 41.5,198.5C 40.8333,196.833 40.1667,195.167 39.5,193.5C 40.1667,193.833 40.8333,194.167 41.5,194.5C 48.8918,200.793 57.5584,203.46 67.5,202.5C 72.5038,203.335 77.5038,203.835 82.5,204C 77.2041,202.853 73.2041,200.02 70.5,195.5C 68.1131,190.395 65.4464,185.395 62.5,180.5C 62.9569,179.702 63.6236,179.369 64.5,179.5 Z"/></g>
<g><path style="opacity:1" fill="#651406" d="M 41.5,194.5 C 49.9666,198.112 58.6332,200.779 67.5,202.5C 57.5584,203.46 48.8918,200.793 41.5,194.5 Z"/></g>
<g><path style="opacity:1" fill="#bea640" d="M 190.5,179.5 C 186.84,184.813 183.673,190.48 181,196.5C 178.441,199.531 175.274,201.698 171.5,203C 180.514,202.465 189.514,201.465 198.5,200C 203.384,199.225 207.384,197.059 210.5,193.5C 211.167,193.167 211.833,192.833 212.5,192.5C 213.338,192.842 213.672,193.508 213.5,194.5C 204.101,207.253 191.434,212.753 175.5,211C 167.847,209.336 160.181,207.836 152.5,206.5C 158.296,203.927 163.962,200.76 169.5,197C 175.395,190.936 181.395,185.103 187.5,179.5C 188.652,178.375 189.652,178.375 190.5,179.5 Z"/></g>
<g><path style="opacity:1" fill="#bca43e" d="M 152.5,207.5 C 153.708,208.234 155.041,208.567 156.5,208.5C 167.273,215.743 178.94,217.409 191.5,213.5C 192.167,213.167 192.833,212.833 193.5,212.5C 194.506,212.938 194.506,213.604 193.5,214.5C 184.993,222.296 174.993,225.129 163.5,223C 155.309,219.072 147.309,214.906 139.5,210.5C 137.799,208.577 135.799,208.243 133.5,209.5C 141.113,214.224 148.279,219.558 155,225.5C 155.483,226.448 155.649,227.448 155.5,228.5C 154.162,230.113 152.495,230.613 150.5,230C 143.473,222.461 135.473,216.294 126.5,211.5C 122.722,212.555 119.389,214.388 116.5,217C 111.167,221 106.5,225.667 102.5,231C 100.934,231.3 99.601,230.8 98.5,229.5C 97.6971,228.577 97.5304,227.577 98,226.5C 103.596,220.642 109.762,215.642 116.5,211.5C 122.001,208.946 121.668,208.113 115.5,209C 108.167,213.333 100.833,217.667 93.5,222C 80.1811,226.919 68.5145,224.419 58.5,214.5C 58.5,213.833 58.5,213.167 58.5,212.5C 59.391,213.11 60.391,213.443 61.5,213.5C 62.6002,214.558 63.9336,215.392 65.5,216C 76.3381,217.288 86.3381,215.121 95.5,209.5C 96.609,209.443 97.609,209.11 98.5,208.5C 103.735,206.16 109.235,205.16 115,205.5C 122.667,206.833 130.333,206.833 138,205.5C 142.985,205.407 147.818,206.074 152.5,207.5 Z"/></g>
<g><path style="opacity:1" fill="#3f0f06" d="M 41.5,198.5 C 51.6194,210.037 64.286,214.204 79.5,211C 84.7685,209.532 90.1018,208.365 95.5,207.5C 96.791,207.263 97.791,207.596 98.5,208.5C 97.609,209.11 96.609,209.443 95.5,209.5C 90.0501,210.09 84.7168,211.257 79.5,213C 73.5092,213.499 67.5092,213.666 61.5,213.5C 60.391,213.443 59.391,213.11 58.5,212.5C 57.8333,212.167 57.1667,211.833 56.5,211.5C 49.9268,208.923 44.9268,204.59 41.5,198.5 Z"/></g>
<g><path style="opacity:1" fill="#400803" d="M 213.5,194.5 C 211.842,198.672 209.175,202.172 205.5,205C 201.268,207.275 197.268,209.775 193.5,212.5C 192.833,212.833 192.167,213.167 191.5,213.5C 179.796,213.033 168.13,211.367 156.5,208.5C 155.041,208.567 153.708,208.234 152.5,207.5C 152.5,207.167 152.5,206.833 152.5,206.5C 160.181,207.836 167.847,209.336 175.5,211C 191.434,212.753 204.101,207.253 213.5,194.5 Z"/></g>
<g><path style="opacity:1" fill="#6b0200" d="M 223.5,180.5 C 222.118,183.394 220.118,185.894 217.5,188C 218.5,188.333 219.5,188.667 220.5,189C 218.842,189.725 218.342,190.892 219,192.5C 219.674,191.422 220.674,190.755 222,190.5C 223.8,191.378 225.633,192.045 227.5,192.5C 219.081,203.422 209.748,213.589 199.5,223C 190.125,228.02 180.791,233.02 171.5,238C 165.584,239.979 159.584,241.646 153.5,243C 154.416,243.278 155.082,243.778 155.5,244.5C 149.1,246.421 142.433,247.421 135.5,247.5C 107.748,247.85 82.0811,241.017 58.5,227C 57.2567,225.846 56.2567,224.512 55.5,223C 50.7554,220.748 46.4221,217.915 42.5,214.5C 40.4773,212.147 38.4773,209.814 36.5,207.5C 38.3716,208.511 40.3716,209.345 42.5,210C 45.9759,213.974 50.3092,216.474 55.5,217.5C 56.4656,215.604 56.7989,213.604 56.5,211.5C 57.1667,211.833 57.8333,212.167 58.5,212.5C 58.5,213.167 58.5,213.833 58.5,214.5C 59.9274,217.764 62.2608,220.264 65.5,222C 76.0971,227.856 86.7638,227.856 97.5,222C 101.833,219 106.167,216 110.5,213C 112.345,211.872 114.345,211.372 116.5,211.5C 109.762,215.642 103.596,220.642 98,226.5C 97.5304,227.577 97.6971,228.577 98.5,229.5C 98.8256,232.001 100.159,233.168 102.5,233C 106.5,227.667 111.167,223 116.5,219C 119.508,216.246 123.008,214.413 127,213.5C 135.653,218.47 143.486,224.637 150.5,232C 153.368,232.64 155.035,231.473 155.5,228.5C 155.649,227.448 155.483,226.448 155,225.5C 148.279,219.558 141.113,214.224 133.5,209.5C 135.799,208.243 137.799,208.577 139.5,210.5C 146.895,216.867 155.229,221.7 164.5,225C 176.305,226.886 186.305,223.553 194.5,215C 194.272,214.601 193.938,214.435 193.5,214.5C 194.506,213.604 194.506,212.938 193.5,212.5C 197.268,209.775 201.268,207.275 205.5,205C 209.175,202.172 211.842,198.672 213.5,194.5C 213.672,193.508 213.338,192.842 212.5,192.5C 213.916,190.821 215.25,189.154 216.5,187.5C 218.5,184.833 220.833,182.5 223.5,180.5 Z"/></g>
<g><path style="opacity:1" fill="#660b03" d="M 95.5,209.5 C 86.3381,215.121 76.3381,217.288 65.5,216C 63.9336,215.392 62.6002,214.558 61.5,213.5C 67.5092,213.666 73.5092,213.499 79.5,213C 84.7168,211.257 90.0501,210.09 95.5,209.5 Z"/></g>
<g><path style="opacity:1" fill="#6b0a03" d="M 156.5,208.5 C 168.13,211.367 179.796,213.033 191.5,213.5C 178.94,217.409 167.273,215.743 156.5,208.5 Z"/></g>
<g><path style="opacity:1" fill="#3f0d04" d="M 116.5,211.5 C 114.345,211.372 112.345,211.872 110.5,213C 106.167,216 101.833,219 97.5,222C 86.7638,227.856 76.0971,227.856 65.5,222C 62.2608,220.264 59.9274,217.764 58.5,214.5C 68.5145,224.419 80.1811,226.919 93.5,222C 100.833,217.667 108.167,213.333 115.5,209C 121.668,208.113 122.001,208.946 116.5,211.5 Z"/></g>
<g><path style="opacity:1" fill="#3e0e05" d="M 139.5,210.5 C 147.309,214.906 155.309,219.072 163.5,223C 174.993,225.129 184.993,222.296 193.5,214.5C 193.938,214.435 194.272,214.601 194.5,215C 186.305,223.553 176.305,226.886 164.5,225C 155.229,221.7 146.895,216.867 139.5,210.5 Z"/></g>
<g><path style="opacity:1" fill="#431409" d="M 155.5,228.5 C 155.035,231.473 153.368,232.64 150.5,232C 143.486,224.637 135.653,218.47 127,213.5C 123.008,214.413 119.508,216.246 116.5,219C 111.167,223 106.5,227.667 102.5,233C 100.159,233.168 98.8256,232.001 98.5,229.5C 99.601,230.8 100.934,231.3 102.5,231C 106.5,225.667 111.167,221 116.5,217C 119.389,214.388 122.722,212.555 126.5,211.5C 135.473,216.294 143.473,222.461 150.5,230C 152.495,230.613 154.162,230.113 155.5,228.5 Z"/></g>
<g><path style="opacity:1" fill="#480904" d="M 227.5,192.5 C 228.5,192.5 229.5,192.5 230.5,192.5C 212.647,219.943 187.647,237.276 155.5,244.5C 155.082,243.778 154.416,243.278 153.5,243C 159.584,241.646 165.584,239.979 171.5,238C 180.791,233.02 190.125,228.02 199.5,223C 209.748,213.589 219.081,203.422 227.5,192.5 Z"/></g>
<g><path style="opacity:1" fill="#4a1008" d="M 23.5,194.5 C 28.7237,197.723 33.057,202.057 36.5,207.5C 38.4773,209.814 40.4773,212.147 42.5,214.5C 46.4221,217.915 50.7554,220.748 55.5,223C 56.2567,224.512 57.2567,225.846 58.5,227C 82.0811,241.017 107.748,247.85 135.5,247.5C 88.3965,250.28 51.0631,232.613 23.5,194.5 Z"/></g>
</svg>
